# xmcd
# 
# Track frame offsets:
#     150
#     37182
#     47293
#     76526
#     93442
#     98741
#     118277
#     189265
#     197818
#     211856
#     217167
# 
# Disc length: 3032
# 
# Revision: 5
# Processed by: cddbd v1.5.2PL0 Copyright (c) Steve Scherf et al.
# Submitted via: fre:ac v1.1beta1pre4
# 
DISCID=910bd60b
DTITLE=Ι.Μ.Μεγάλου Μετεώρου - Μετέωρα τα Ιερά
DYEAR=0
DGENRE=Other
TTITLE0=Ανοιξαντάρια
TTITLE1=Προεόρτια προσόμοια
TTITLE2=Δοξαστικό
TTITLE3=Προκείμενον
TTITLE4=Εξαποστειλάριον
TTITLE5=Στιχηρά προσόμοι των αίνων
TTITLE6=Στιχηρόν ιδιόμελον
TTITLE7=Θεία Λειτουργία
TTITLE8=Β. Αντίφωνον
TTITLE9=Γ. Αντίφωνον
TTITLE10=Εισοδικόν
EXTD=Μελουργήματα από την Ακολουθία της Θείας Μεταμορφώσεως του Κυρίου και Θεού και Σωτήρος ημών Ιησού Χριστού
EXTT0=Αρκαδίου μοχαχού(ιδ' αι.) πλ.δ
EXTT1=Πέτρου Βυζαντίου ήχος β' Σήμερον ο Χριστός
EXTT2=Κωνσταντίνου Πρωτοψάλτου (+1862) ήχος πλ.β' Προτυπών την ανάστασιν
EXTT3=μέλος "θετταλικόν" (ιδ' αι.) ήχος δ' αγία Ο Κύριος εβασίλευσεν
EXTT4=ήχος γ' Φως αναλλοίωτον Λόγε
EXTT5=Πέτρου Βυζαντίου, ήχος δ' λέγετος, τρία
EXTT6=Γερμανού Νέων Πατρών (β ήμ. ιζ' αι.), ήχος πλ.δ', Παρέλαβεν ο Χριστός
EXTT7=
EXTT8=
EXTT9=
EXTT10=
PLAYORDER=
